<svg width="97" height="18" viewBox="0 0 97 18" fill="none" xmlns="http://www.w3.org/2000/svg">
<path d="M3.39418 14L4.36577 11.0149H9.08949L10.0611 14H13.027L8.5142 0.909091H4.94744L0.428267 14H3.39418ZM5.06889 8.8544L6.67969 3.90057H6.78196L8.39276 8.8544H5.06889ZM14.5515 17.6818H17.2745V12.4276H17.3576C17.7347 13.2457 18.5593 14.1598 20.1445 14.1598C22.3817 14.1598 24.1268 12.3892 24.1268 9.10369C24.1268 5.72869 22.305 4.05398 20.1509 4.05398C18.5082 4.05398 17.7219 5.03196 17.3576 5.83097H17.2362V4.18182H14.5515V17.6818ZM17.217 9.09091C17.217 7.33949 17.9585 6.22088 19.2816 6.22088C20.6303 6.22088 21.3462 7.39062 21.3462 9.09091C21.3462 10.804 20.6175 11.9929 19.2816 11.9929C17.9712 11.9929 17.217 10.8423 17.217 9.09091ZM32.2383 9.8196C32.2447 11.1364 31.3434 11.8267 30.3654 11.8267C29.3363 11.8267 28.6715 11.1044 28.6651 9.94744V4.18182H25.9421V10.4332C25.9485 12.728 27.2908 14.1278 29.266 14.1278C30.7425 14.1278 31.8036 13.3672 32.2447 12.2166H32.3469V14H34.9613V4.18182H32.2383V9.8196ZM37.1394 14H39.8624V10.8807L40.5975 10.0433L43.2757 14H46.4654L42.6365 8.43253L46.28 4.18182H43.1543L40.0094 7.90838H39.8624V0.909091H37.1394V14ZM50.339 8.32386C50.3453 7.05824 51.1188 6.31676 52.231 6.31676C53.3368 6.31676 53.9888 7.02628 53.9824 8.23438V14H56.7054V7.74858C56.7118 5.44744 55.3567 4.05398 53.3113 4.05398C51.8219 4.05398 50.8248 4.7571 50.3773 5.91406H50.2623V0.909091H47.6159V14H50.339V8.32386ZM61.6481 14.1854C63.0991 14.1854 64.0387 13.5526 64.5181 12.6385H64.5948V14H67.1772V7.37784C67.1772 5.03835 65.1957 4.05398 63.0096 4.05398C60.6573 4.05398 59.1104 5.17898 58.7333 6.96875L61.2518 7.1733C61.4371 6.52131 62.0188 6.0419 62.9968 6.0419C63.9237 6.0419 64.4542 6.50852 64.4542 7.31392V7.35227C64.4542 7.98509 63.783 8.06818 62.0763 8.23438C60.1332 8.41335 58.3881 9.06534 58.3881 11.2578C58.3881 13.201 59.7752 14.1854 61.6481 14.1854ZM62.4279 12.3061C61.5906 12.3061 60.9897 11.9162 60.9897 11.1683C60.9897 10.4013 61.6225 10.0241 62.5813 9.88991C63.1758 9.80682 64.1474 9.66619 64.4734 9.44886V10.4908C64.4734 11.5199 63.6232 12.3061 62.4279 12.3061ZM74.5121 4.18182H72.6648V1.82955H69.9418V4.18182H68.5994V6.22727H69.9418V11.3409C69.929 13.2649 71.2393 14.2173 73.2145 14.1342C73.9176 14.1087 74.4162 13.968 74.6911 13.8786L74.2628 11.8523C74.1286 11.8778 73.8409 11.9418 73.5852 11.9418C73.0419 11.9418 72.6648 11.7372 72.6648 10.983V6.22727H74.5121V4.18182ZM79.0856 14.1854C80.5366 14.1854 81.4762 13.5526 81.9556 12.6385H82.0323V14H84.6147V7.37784C84.6147 5.03835 82.6332 4.05398 80.4471 4.05398C78.0948 4.05398 76.5479 5.17898 76.1708 6.96875L78.6893 7.1733C78.8746 6.52131 79.4563 6.0419 80.4343 6.0419C81.3612 6.0419 81.8917 6.50852 81.8917 7.31392V7.35227C81.8917 7.98509 81.2205 8.06818 79.5138 8.23438C77.5707 8.41335 75.8256 9.06534 75.8256 11.2578C75.8256 13.201 77.2127 14.1854 79.0856 14.1854ZM79.8654 12.3061C79.0281 12.3061 78.4272 11.9162 78.4272 11.1683C78.4272 10.4013 79.06 10.0241 80.0188 9.88991C80.6133 9.80682 81.5849 9.66619 81.9109 9.44886V10.4908C81.9109 11.5199 81.0607 12.3061 79.8654 12.3061Z" fill="#213C96"/>
<path d="M90.6136 13.2905H92.902V9.90909H96.2834V7.62074H92.902V4.23935H90.6136V7.62074H87.2322V9.90909H90.6136V13.2905Z" fill="#F4B942"/>
</svg>
