<svg width="3288" height="646" viewBox="0 0 3288 646" fill="none" xmlns="http://www.w3.org/2000/svg">
<path d="M459.784 268.558V209.265C459.784 204.944 458.067 200.8 455.01 197.744C451.952 194.689 447.806 192.972 443.483 192.972C439.159 192.972 435.013 194.689 431.956 197.744C428.899 200.8 427.181 204.944 427.181 209.265V240.334L257.808 93.7367C255.038 91.3394 251.5 90.0132 247.836 90.0002C244.173 89.9864 240.625 91.2858 237.837 93.6627L0 296.624H58.6159V539.211C58.6159 543.271 60.2287 547.164 63.1 550.036C65.9703 552.908 69.8649 554.522 73.9261 554.525H190.482C194.545 554.522 198.438 552.908 201.31 550.036C204.18 547.164 205.793 543.271 205.793 539.211V465.712C205.793 463.244 206.774 460.877 208.521 459.132C210.267 457.387 212.634 456.406 215.104 456.406H273.646C274.868 456.406 276.078 456.647 277.207 457.115C278.336 457.583 279.362 458.268 280.226 459.133C281.089 459.997 281.774 461.022 282.24 462.152C282.708 463.281 282.947 464.49 282.945 465.712V539.211C282.948 543.272 284.564 547.165 287.436 550.037C290.309 552.908 294.205 554.522 298.267 554.525H420.464C424.526 554.522 428.421 552.908 431.291 550.036C434.162 547.164 435.774 543.271 435.774 539.211V296.624H492.166L459.784 268.558ZM139.322 401.835H107.383C104.978 401.835 102.672 400.88 100.971 399.18C99.2705 397.48 98.3147 395.175 98.3147 392.772V360.849H139.322V401.835ZM139.322 352.302H98.3147V319.957C98.3147 317.665 99.2261 315.467 100.847 313.846C102.469 312.225 104.669 311.315 106.962 311.315H139.322V352.302ZM190.24 393.004C190.24 394.162 190.012 395.308 189.568 396.378C189.125 397.448 188.475 398.419 187.655 399.237C186.835 400.056 185.862 400.704 184.792 401.146C183.721 401.588 182.573 401.815 181.414 401.814H149.234V360.827H190.24V393.004ZM190.24 352.302H149.234V311.315H180.761C183.278 311.315 185.692 312.315 187.471 314.093C189.251 315.872 190.25 318.285 190.25 320.8L190.24 352.302ZM347.94 401.835H316.012C313.607 401.835 311.299 400.881 309.596 399.181C307.895 397.482 306.937 395.176 306.934 392.772V360.849H347.94V401.835ZM347.94 352.302H306.934V319.957C306.937 317.664 307.85 315.466 309.473 313.846C311.096 312.225 313.297 311.315 315.591 311.315H347.94V352.302ZM398.87 393.004C398.87 394.162 398.641 395.308 398.198 396.378C397.754 397.448 397.103 398.419 396.284 399.237C395.465 400.056 394.491 400.704 393.421 401.146C392.35 401.588 391.203 401.815 390.044 401.814H357.864V360.827H398.87V393.004ZM398.87 352.302H357.864V311.315H389.391C391.908 311.315 394.321 312.315 396.1 314.093C397.881 315.872 398.88 318.285 398.88 320.8L398.87 352.302Z" fill="#0000BA"/>
<path d="M492.976 146.901L489.94 149.473C489.378 149.959 488.659 150.227 487.915 150.227C487.171 150.227 486.453 149.959 485.89 149.473C473.838 138.828 459.53 132.811 442.881 132.694C426.463 132.578 412.302 138.132 399.733 148.798C399.101 149.314 398.294 149.565 397.48 149.501C396.667 149.436 395.91 149.059 395.368 148.45L392.806 145.478C392.305 144.882 392.043 144.122 392.068 143.344C392.093 142.566 392.404 141.825 392.942 141.262C416.804 117.181 464.116 114.282 493.113 142.316C493.416 142.621 493.653 142.983 493.811 143.383C493.968 143.781 494.043 144.208 494.03 144.638C494.017 145.067 493.917 145.488 493.736 145.878C493.555 146.267 493.297 146.615 492.976 146.901Z" fill="#0000BA"/>
<path d="M411.207 164.245L407.358 160.239C406.936 159.808 406.701 159.23 406.701 158.627C406.701 158.025 406.936 157.446 407.358 157.014C425.209 139.098 459.383 138.835 478.068 157.658C478.295 157.888 478.47 158.164 478.583 158.467C478.697 158.77 478.745 159.094 478.726 159.417C478.705 159.741 478.618 160.055 478.469 160.343C478.319 160.629 478.11 160.882 477.857 161.083L473.502 164.508C473.097 164.843 472.588 165.026 472.063 165.026C471.537 165.026 471.028 164.843 470.624 164.508C462.791 157.756 452.792 154.041 442.449 154.041C432.106 154.041 422.107 157.756 414.275 164.508C413.824 164.859 413.257 165.026 412.689 164.977C412.12 164.928 411.591 164.666 411.207 164.245Z" fill="#0000BA"/>
<path d="M426.065 179.442L422.49 176.354C422.196 176.1 421.959 175.787 421.795 175.435C421.63 175.084 421.542 174.701 421.535 174.313C421.53 173.924 421.606 173.539 421.759 173.182C421.913 172.825 422.142 172.505 422.427 172.244C433.035 162.6 452.479 162.758 462.696 172.496C462.976 172.766 463.195 173.092 463.34 173.452C463.485 173.813 463.551 174.201 463.535 174.589C463.519 174.977 463.422 175.359 463.248 175.706C463.074 176.054 462.829 176.361 462.527 176.606L458.837 179.61C458.378 179.969 457.816 180.171 457.234 180.189C456.651 180.206 456.078 180.036 455.6 179.705C447.28 173.972 438.254 173.635 429.418 179.631C428.916 179.97 428.315 180.135 427.709 180.101C427.104 180.067 426.526 179.836 426.065 179.442Z" fill="#0000BA"/>
<path d="M1020.94 552.427H922.908L700.813 239.348V552.427H602.736V95.5491H700.813L922.908 409.283V95.5491H1020.98L1020.94 552.427Z" fill="#0000BA"/>
<path d="M1197.72 96.474V552.427H1099.63V96.474H1197.72Z" fill="#0000BA"/>
<path d="M1931.49 96.474L1794.71 551.772H1678.95L1587.07 227.576L1490.9 551.772L1375.86 552.427L1243.98 96.474H1349.21L1435.47 450.006L1535.08 96.474H1644.45L1738.44 448.061L1825.42 96.474H1931.49Z" fill="#0000BA"/>
<path d="M2277.53 465.491H2082.57L2050.31 552.427H1947.22L2123.24 95.5491H2237.55L2413.58 552.427H2309.73L2277.53 465.491ZM2250.88 392.298L2180.05 201.36L2109.2 392.298H2250.88Z" fill="#0000BA"/>
<path d="M2761.43 465.491H2566.5L2534.22 552.427H2431.16L2607.14 95.5491H2721.44L2897.52 552.427H2793.74L2761.43 465.491ZM2734.77 392.298L2663.96 201.36L2593.12 392.298H2734.77Z" fill="#0000BA"/>
<path d="M3022.83 539.936C2995.5 529.088 2973.91 513.44 2958.04 492.989C2942.16 472.538 2934.02 448.417 2933.6 420.625H3038.69C3040.08 439.317 3047.21 454.094 3060.05 464.954C3072.9 475.814 3090.52 481.25 3112.93 481.262C3135.81 481.262 3153.79 476.15 3166.86 465.925C3173.12 461.299 3178.16 455.243 3181.57 448.264C3184.99 441.287 3186.68 433.591 3186.49 425.825C3186.49 412.372 3182.06 401.287 3173.19 392.569C3163.66 383.473 3152.31 376.475 3139.9 372.033C3126.66 367.046 3108.33 361.504 3084.9 355.406C3053.14 346.716 3027.33 338.118 3007.46 329.612C2987.56 321.106 2970.01 307.911 2956.33 291.157C2942.07 273.96 2934.95 251.03 2934.96 222.366C2934.96 195.407 2942.19 171.928 2956.66 151.927C2971.14 131.927 2991.44 116.609 3017.62 105.974C3043.78 95.3125 3073.66 89.9878 3107.28 90C3157.71 90 3198.68 101.41 3230.19 124.227C3261.7 147.046 3279.11 178.886 3282.39 219.747H3174.51C3173.57 204.085 3166.45 191.155 3153.15 180.955C3139.83 170.756 3122.22 165.651 3100.26 165.639C3081.12 165.639 3065.82 170.201 3054.39 179.328C3042.96 188.456 3037.22 201.684 3037.22 219.013C3037.08 224.698 3038.17 230.348 3040.41 235.579C3042.64 240.809 3045.97 245.5 3050.17 249.331C3059.57 257.852 3070.51 264.493 3082.41 268.895C3095.24 273.896 3113.33 279.656 3136.7 286.177C3168.48 294.881 3194.4 303.572 3214.46 312.25C3234.58 321.003 3252.36 334.414 3266.28 351.377C3280.75 368.772 3288 391.598 3288 419.852C3288.07 443.96 3280.99 467.546 3267.7 487.652C3254.14 508.526 3234.27 525.153 3208.11 537.535C3181.96 549.917 3150.9 556.112 3114.97 556.126C3080.86 556.206 3050.15 550.808 3022.83 539.936Z" fill="#0000BA"/>
</svg>
